#!OML:ASF E:\I on waltz\AllaLogoMonkeySwing\Project 1\Capture day 1\Session 1\Subject1.ASF
:FULLY-SPECIFIED
:DEGREES
1015
root 2.13541 17.9805 6.97594 543.23 161.514 540.02
lowerback 12.7044 0.689452 -1.44978
upperback 1.28474 0.900924 2.8174
thorax -5.8453 0.516773 3.63496
lowerneck -9.06012 -4.43927 -5.34477
upperneck 7.89106 -5.54254 2.94958
head 4.0666 -2.74022 1.41637
rclavicle 7.41467e-014 -1.66979e-014
rhumerus -32.2259 -46.1047 -56.8208
rradius 13.1527
rwrist 22.6198
rhand -17.4815 -42.6361
rfingers 7.12502
rthumb 8.77075 -72.4338
lclavicle 7.41467e-014 -1.66979e-014
lhumerus -51.7282 23.9415 72.9584
lradius 47.4978
lwrist 5.04289
lhand -3.53022 -17.7429
lfingers 7.12502
lthumb 22.205 11.0016
rfemur -1.66012 -7.1013 17.077
rtibia 19.9798
rfoot -16.2901 -17.001
rtoes 16.2363
lfemur -5.81723 -2.04236 -10.5964
ltibia 15.9548
lfoot -9.04028 0.595787
ltoes -40.8364
1016
root 2.1481 17.964 6.96835 543.122 162.31 539.849
lowerback 12.4272 0.595169 -1.61542
upperback 1.21366 0.755431 2.85032
thorax -5.75784 0.448999 3.78983
lowerneck -9.10388 -4.19202 -5.10655
upperneck 8.09506 -5.22181 2.73885
head 4.11092 -2.58643 1.33317
rclavicle -5.56597e-015 5.56597e-015
rhumerus -41.5826 -55.9431 -44.525
rradius 11.4199
rwrist 35.9148
rhand -17.7898 -42.4172
rfingers 7.12502
rthumb 8.47315 -72.2272
lclavicle -5.56597e-015 5.56597e-015
lhumerus -51.0646 23.6023 72.6309
lradius 49.042
lwrist 7.05625
lhand -5.28378 -16.721
lfingers 7.12502
lthumb 20.5207 12.2145
rfemur -1.32635 -6.81222 17.2299
rtibia 19.2774
rfoot -16.3905 -16.8786
rtoes 15.9398
lfemur -5.16846 -1.95291 -10.4822
ltibia 15.391
lfoot -9.24489 1.43674
ltoes -40.6522
1017
root 2.16538 17.9443 6.95796 543.047 163.177 539.877
lowerback 12.1683 0.568981 -1.86881
upperback 1.1454 0.684185 2.80534
thorax -5.68251 0.418759 3.89841
lowerneck -9.21548 -4.01509 -4.87201
upperneck 8.30757 -4.99015 2.51484
head 4.17353 -2.47692 1.23901
rclavicle 1.96797e-014 5.24792e-014
rhumerus -53.0672 -61.5091 -31.0161
rradius 10.7014
rwrist 45.2668
rhand -17.3759 -42.4819
rfingers 7.12502
rthumb 8.8726 -72.2754
lclavicle 1.96797e-014 5.24792e-014
lhumerus -50.4519 23.34 72.2399
lradius 50.5767
lwrist 8.83478
lhand -6.98291 -15.8919
lfingers 7.12502
lthumb 18.8873 13.2112
rfemur -1.01042 -6.50438 17.1057
rtibia 18.683
rfoot -16.6397 -16.6366
rtoes 15.9421
lfemur -4.49428 -1.77459 -10.6701
ltibia 14.763
lfoot -9.43659 2.47232
ltoes -40.5891
1018
root 2.1836 17.9221 6.94296 542.947 164.101 539.782
lowerback 11.9387 0.555041 -2.01342
upperback 1.07705 0.646889 2.79267
thorax -5.62504 0.403303 3.97334
lowerneck -9.44854 -3.80583 -4.52343
upperneck 8.51668 -4.71569 2.20324
head 4.24988 -2.34684 1.10065
rclavicle 1.45113e-014 -4.21423e-014
rhumerus -58.5973 -62.213 -24.8929
rradius 10.7134
rwrist 48.1046
rhand -16.6836 -42.76
rfingers 7.12502
rthumb 9.54062 -72.524
lclavicle 1.45113e-014 -4.21423e-014
lhumerus -49.9581 23.3742 71.6691
lradius 52.0256
lwrist 10.0646
lhand -8.4553 -15.4875
lfingers 7.12502
lthumb 17.4707 13.7474
rfemur -0.791301 -6.08052 17.1065
rtibia 18.1974
rfoot -16.8844 -16.299
rtoes 15.7397
lfemur -3.84186 -1.47482 -10.7129
ltibia 14.0973
lfoot -9.60428 3.56789
ltoes -40.3186
1019
root 2.20087 17.8976 6.9213 542.867 165.044 539.475
lowerback 11.7344 0.495951 -2.0182
upperback 0.966302 0.574409 2.86916
thorax -5.62285 0.369903 4.06929
lowerneck -9.81151 -3.50516 -4.17903
upperneck 8.7624 -4.31179 1.87655
head 4.35668 -2.15384 0.965057
rclavicle 2.96189e-014 -3.33958e-014
rhumerus -56.1363 -59.6831 -28.0106
rradius 11.1106
rwrist 45.3339
rhand -15.5003 -42.933
rfingers 7.12502
rthumb 10.6822 -72.6414
lclavicle 2.96189e-014 -3.33958e-014
lhumerus -49.5635 23.5635 71.0515
lradius 53.3493
lwrist 11.1847
lhand -9.93792 -15.3298
lfingers 7.12502
lthumb 16.0434 14.026
rfemur -0.829508 -5.61761 17.326
rtibia 17.9739
rfoot -17.063 -15.7785
rtoes 15.6158
lfemur -3.2556 -1.20225 -10.4491
ltibia 13.4087
lfoot -9.76142 4.51785
ltoes -39.9453
1020
root 2.21618 17.8745 6.89798 542.752 166.008 539.076
lowerback 11.5416 0.422523 -1.96947
upperback 0.877842 0.49269 2.99777
thorax -5.60242 0.330798 4.19116
lowerneck -10.1954 -3.17864 -3.80804
upperneck 8.96848 -3.8696 1.48189
head 4.45478 -1.94567 0.807765
rclavicle -2.05742e-014 -2.3059e-014
rhumerus -51.5293 -55.7569 -33.8227
rradius 11.6684
rwrist 40.193
rhand -13.6137 -42.4124
rfingers 7.12502
rthumb 12.5016 -72.0185
lclavicle -2.05742e-014 -2.3059e-014
lhumerus -49.1553 23.7818 70.4852
lradius 54.5126
lwrist 12.2323
lhand -11.2464 -15.2926
lfingers 7.12502
lthumb 14.7832 14.1601
rfemur -1.04317 -5.22197 17.611
rtibia 18.116
rfoot -17.2805 -15.1015
rtoes 15.6187
lfemur -2.55853 -0.987235 -9.99328
ltibia 12.5644
lfoot -9.91559 5.21624
ltoes -39.3421
1021
root 2.24094 17.858 6.86356 542.638 166.784 538.736
lowerback 11.4635 0.277728 -1.73766
upperback 0.785187 0.335328 3.06481
thorax -5.64179 0.25015 4.15596
lowerneck -10.4611 -2.89283 -3.49808
upperneck 9.03547 -3.49379 1.22729
head 4.49916 -1.76466 0.702073
rclavicle 2.20651e-014 2.70347e-014
rhumerus -47.9096 -51.7217 -38.8289
rradius 12.2826
rwrist 34.6253
rhand -11.4168 -41.1953
rfingers 7.12502
rthumb 14.6189 -70.66
lclavicle 2.20651e-014 2.70347e-014
lhumerus -48.7396 24.0868 69.8816
lradius 55.4277
lwrist 12.9881
lhand -12.2253 -15.5789
lfingers 7.12502
lthumb 13.8399 13.9406
rfemur -1.3446 -5.39832 17.7001
rtibia 18.4848
rfoot -17.4576 -14.1204
rtoes 15.1895
lfemur -1.91511 -0.880782 -9.67338
ltibia 11.6875
lfoot -10.0664 5.61734
ltoes -38.6091
1022
root 2.25475 17.8494 6.82854 542.569 167.42 538.481
lowerback 11.4031 0.137389 -1.70802
upperback 0.676615 0.15942 3.1555
thorax -5.70795 0.166414 4.26467
lowerneck -10.7105 -2.64052 -3.35882
upperneck 9.09428 -3.15828 1.14681
head 4.54694 -1.59918 0.675308
rclavicle 1.48095e-014 1.03368e-014
rhumerus -45.396 -48.0487 -42.7289
rradius 12.8956
rwrist 29.2953
rhand -9.70768 -39.7933
rfingers 7.12502
rthumb 16.2651 -69.1311
lclavicle 1.48095e-014 1.03368e-014
lhumerus -48.2896 24.4016 69.3604
lradius 56.0279
lwrist 13.6283
lhand -13.1105 -16.0907
lfingers 7.12502
lthumb 12.9867 13.4851
rfemur -1.63884 -5.47403 17.7907
rtibia 18.7273
rfoot -17.42 -13.4307
rtoes 14.8558
lfemur -1.47737 -0.714962 -9.36695
ltibia 10.9888
lfoot -10.0381 5.74294
ltoes -38.8723
1023
root 2.26272 17.8514 6.80079 542.552 168.104 538.575
lowerback 11.2654 0.0210024 -2.15913
upperback 0.59693 -0.0508806 3.17942
thorax -5.69652 0.0755308 4.58106
lowerneck -11.0265 -2.32578 -3.03283
upperneck 9.28701 -2.73956 0.827567
head 4.64009 -1.40164 0.549902
rclavicle -2.78299e-015 -3.89618e-014
rhumerus -43.6158 -44.7872 -45.931
rradius 13.6115
rwrist 24.7632
rhand -8.40076 -38.6238
rfingers 7.12502
rthumb 17.5232 -67.8541
lclavicle -2.78299e-015 -3.89618e-014
lhumerus -47.8241 24.7134 68.8694
lradius 56.2652
lwrist 14.1795
lhand -13.8269 -16.4979
lfingers 7.12502
lthumb 12.296 13.1206
rfemur -1.79631 -5.39308 17.5386
rtibia 18.7909
rfoot -17.2744 -12.8746
rtoes 14.9777
lfemur -1.00272 -0.423048 -9.44655
ltibia 10.3033
lfoot -9.81823 5.76441
ltoes -39.6678
1024
root 2.26602 17.8618 6.77664 542.494 168.759 538.818
lowerback 11.1559 -0.145146 -2.81405
upperback 0.528882 -0.355676 3.15842
thorax -5.67443 -0.0575104 4.9812
lowerneck -11.3196 -1.92624 -2.5398
upperneck 9.51259 -2.21649 0.346115
head 4.73709 -1.15812 0.355935
rclavicle 1.82882e-014 -3.97569e-015
rhumerus -42.4334 -42.0421 -48.579
rradius 14.4804
rwrist 21.075
rhand -7.36083 -37.8599
rfingers 7.12502
rthumb 18.5238 -66.998
lclavicle 1.82882e-014 -3.97569e-015
lhumerus -47.5057 24.9872 68.3468
lradius 56.2818
lwrist 14.5853
lhand -14.3994 -16.5486
lfingers 7.12502
lthumb 11.744 13.1022
rfemur -1.76483 -5.14615 17.1864
rtibia 18.6677
rfoot -17.1401 -12.4975
rtoes 14.757
lfemur -0.483063 -0.12561 -9.69881
ltibia 9.67108
lfoot -9.66109 5.7774
ltoes -39.9668
1025
root 2.26272 17.8742 6.75278 542.471 169.253 539.079
lowerback 11.0982 -0.362682 -3.42214
upperback 0.400771 -0.725011 3.09997
thorax -5.73165 -0.22063 5.32654
lowerneck -11.6351 -1.52911 -2.15871
upperneck 9.76906 -1.69602 0.0103884
head 4.85502 -0.911678 0.22557
rclavicle 1.74931e-014 -1.23246e-014
rhumerus -41.8348 -39.8437 -50.6583
rradius 15.3988
rwrist 17.8483
rhand -6.97501 -37.1775
rfingers 7.12502
rthumb 18.8949 -66.2798
lclavicle 1.74931e-014 -1.23246e-014
lhumerus -47.3061 24.9927 67.8943
lradius 56.1599
lwrist 15.007
lhand -14.9475 -16.3148
lfingers 7.12502
lthumb 11.2154 13.3655
rfemur -1.68441 -4.73947 16.905
rtibia 18.3963
rfoot -16.9496 -12.4395
rtoes 14.2514
lfemur -0.157601 0.04126 -9.95915
ltibia 9.26221
lfoot -9.61758 5.86133
ltoes -39.7473
1026
root 2.25943 17.8849 6.72806 542.473 169.679 539.21
lowerback 10.9825 -0.605099 -3.80624
upperback 0.267573 -1.0976 3.04291
thorax -5.7583 -0.391477 5.54319
lowerneck -12.0565 -1.12869 -1.81254
upperneck 10.1604 -1.16577 -0.301294
head 5.03684 -0.661879 0.109331
rclavicle 7.85199e-015 -2.74323e-014
rhumerus -41.5465 -38.0098 -52.4851
rradius 16.3724
rwrist 14.8588
rhand -7.36834 -36.5851
rfingers 7.12502
rthumb 18.5165 -65.7238
lclavicle 7.85199e-015 -2.74323e-014
lhumerus -47.0568 24.6822 67.5884
lradius 55.879
lwrist 15.5238
lhand -15.3184 -15.939
lfingers 7.12502
lthumb 10.8577 13.7603
rfemur -1.64822 -4.32224 16.7831
rtibia 18.1084
rfoot -16.7622 -12.3824
rtoes 14.3282
lfemur 0.0291552 0.158709 -10.0883
ltibia 8.96962
lfoot -9.50962 6.03976
ltoes -39.5807
1027
root 2.26076 17.8917 6.69699 542.41 170.126 539.038
lowerback 10.8034 -0.857088 -3.81942
upperback 0.201959 -1.42895 3.071
thorax -5.68516 -0.555355 5.62648
lowerneck -12.4772 -0.710649 -1.51131
upperneck 10.5322 -0.604493 -0.612938
head 5.2166 -0.399839 0.00495349
rclavicle 1.3418e-015 -2.62396e-014
rhumerus -41.5191 -36.9273 -53.8475
rradius 17.3471
rwrist 12.7037
rhand -7.82647 -36.415
rfingers 7.12502
rthumb 18.0758 -65.5951
lclavicle 1.3418e-015 -2.62396e-014
lhumerus -46.6919 24.0949 67.5515
lradius 55.5246
lwrist 15.9748
lhand -15.3321 -15.3385
lfingers 7.12502
lthumb 10.8445 14.3615
rfemur -1.68233 -3.96442 16.9804
rtibia 17.9159
rfoot -16.638 -12.1833
rtoes 14.7241
lfemur 0.172506 0.264894 -9.89727
ltibia 8.76346
lfoot -9.2428 6.29779
ltoes -39.6868
1028
root 2.2648 17.8944 6.66119 542.276 170.606 538.737
lowerback 10.7425 -1.08527 -3.60118
upperback 0.125841 -1.70204 3.11115
thorax -5.70232 -0.693671 5.58474
lowerneck -12.7878 -0.340739 -1.27607
upperneck 10.791 -0.108912 -0.852159
head 5.34689 -0.167691 -0.0689174
rclavicle 1.26228e-014 -3.22031e-014
rhumerus -41.7865 -36.5264 -54.6938
rradius 18.1687
rwrist 11.2829
rhand -7.87864 -36.485
rfingers 7.12502
rthumb 18.0256 -65.6698
lclavicle 1.26228e-014 -3.22031e-014
lhumerus -46.2652 23.2191 67.6935
lradius 55.0585
lwrist 16.1921
lhand -14.8785 -14.5543
lfingers 7.12502
lthumb 11.2819 15.1223
rfemur -1.72555 -3.64259 17.3088
rtibia 17.7925
rfoot -16.4916 -11.9531
rtoes 14.8868
lfemur 0.305682 0.310724 -9.5686
ltibia 8.6895
lfoot -8.97106 6.60143
ltoes -39.5208
